<?xml version="1.0" encoding="utf-8"?>
<!-- Generator: Adobe Illustrator 24.1.2, SVG Export Plug-In . SVG Version: 6.00 Build 0)  -->
<svg version="1.1" id="Calque_1" xmlns="http://www.w3.org/2000/svg" xmlns:xlink="http://www.w3.org/1999/xlink" x="0px" y="0px"
	 viewBox="0 0 766 967" style="enable-background:new 0 0 766 967;" xml:space="preserve">
<g>
	<path d="M764.99,0c0,254.41,0,508.82,0,763.45c-254.73,0-508.94,0-763.82,0c0-2.4,0-4.5,0-6.59c0-249.96,0-499.91-0.01-749.87
		C1.17,4.66,1.06,2.33,1,0C255.66,0,510.33,0,764.99,0z M26.78,24.18c0,238.51,0,476.56,0,714.9c238.43,0,476.6,0,714.8,0
		c0-238.51,0-476.67,0-714.9C503.25,24.18,265.32,24.18,26.78,24.18z"/>
	<path d="M439.99,966.93c-0.71-0.32-1.39-0.8-2.13-0.93c-22.2-3.87-37.19-16.48-44.28-37.76c-7.05-21.14-7.08-42.62,0-63.77
		c7.94-23.73,27.63-38.01,52.85-38.39c8.42-0.13,17.1,0.31,25.23,2.27c16.88,4.05,29.06,14.74,35.81,30.69
		c9.83,23.21,10.07,47.05,1.57,70.64c-7.37,20.48-22.35,32.53-43.87,36.33c-0.76,0.13-1.46,0.6-2.18,0.92
		C455.33,966.93,447.66,966.93,439.99,966.93z M498.72,896.73c-0.24-0.06-0.48-0.11-0.72-0.17c-0.35-4.48-0.61-8.97-1.07-13.44
		c-2.65-25.65-15.92-40.03-39.42-42.77c-24.59-2.87-42.95,9.41-49.2,33.1c-3.19,12.08-3.35,24.42-1.68,36.69
		c0.82,6.04,2.36,12.15,4.65,17.78c7.65,18.78,26.44,27.98,48.5,24.69c17.72-2.65,29.14-12.58,34.02-29.5
		C496.28,914.55,497.13,905.53,498.72,896.73z"/>
	<path d="M583.99,966.93c-2.82-0.8-5.64-1.57-8.45-2.41c-19.59-5.87-31.89-22.24-32.26-44.91c-0.48-29.97-0.09-59.95-0.07-89.92
		c0-0.32,0.15-0.63,0.32-1.35c4.95,0,10.01,0,15.96,0c0,1.73,0,3.63,0,5.53c0,27.14-0.03,54.29,0.04,81.43
		c0.01,3.81,0.14,7.7,0.86,11.43c2.77,14.45,11.58,23.31,26.42,25.27c7.12,0.94,14.73,0.89,21.74-0.55
		c15.49-3.17,23.84-16.01,23.9-35.17c0.09-27.31,0.02-54.62,0.03-81.93c0-1.97,0-3.94,0-6.16c5.43,0,10.37,0,16.01,0
		c0,1.8,0,3.56,0,5.33c0,27.81,0.02,55.62-0.01,83.43c-0.03,27.03-14.14,44.01-40.73,49.16c-0.62,0.12-1.18,0.53-1.77,0.81
		C598.66,966.93,591.33,966.93,583.99,966.93z"/>
	<path d="M765.99,964.93c-30.1,0-60.2,0-90.37,0c-1.15-7.6-0.58-13.46,5.38-19.22c16.27-15.73,31.84-32.2,47.36-48.69
		c7.97-8.47,13.97-18.14,14.95-30.29c1.4-17.37-9.21-28.26-26.7-27.28c-8.73,0.49-16.59,3.23-23.84,7.99
		c-2.35,1.54-4.67,3.12-7.33,4.9c-2.78-3.51-5.44-6.85-8.37-10.55c11.03-9.26,23.12-15.07,37.21-15.73
		c5.93-0.28,12.08,0.01,17.85,1.32c21.52,4.87,32.01,23.86,26.3,46.64c-2.62,10.45-8.02,19.46-15.26,27.14
		c-14.27,15.15-28.99,29.88-43.58,44.72c-1.23,1.26-2.89,2.1-4.36,3.13c0.36,0.64,0.73,1.28,1.09,1.92c23.22,0,46.44,0,69.67,0
		C765.99,955.6,765.99,960.27,765.99,964.93z"/>
	<path d="M99.75,964.93c-6.5,0-11.82,0.24-17.09-0.15c-1.58-0.12-3.43-1.7-4.49-3.12c-14.86-19.86-29.61-39.82-44.39-59.74
		c-0.69-0.93-1.42-1.84-2.54-3.28c-4.53,4.06-9.07,7.87-13.23,12.07c-1.04,1.04-1.13,3.33-1.14,5.04
		c-0.08,16.14-0.05,32.28-0.05,48.8c-5.35,0-10.39,0-15.72,0c0-45.32,0-90.57,0-136.21c4.96,0,10.01,0,15.71,0c0,22,0,44.01,0,67.32
		c9.44-10.3,17.96-19.55,26.43-28.85c10.88-11.93,21.63-23.98,32.67-35.77c1.56-1.66,4.36-2.73,6.7-2.97
		c4.56-0.46,9.2-0.13,15.06-0.13c-18.6,20.28-36.41,39.7-54.5,59.43C61.88,912.99,80.47,938.48,99.75,964.93z"/>
	<path d="M262.99,827.95c5.08,0,9.73-0.22,14.33,0.14c1.29,0.1,3.1,1.71,3.55,3.01c12.91,37.22,25.68,74.49,38.48,111.74
		c0.15,0.43,0.55,0.78,0.43,0.61c13.39-38.21,26.89-76.7,40.42-115.3c5.71,0,11.15,0,17.22,0c-1.63,4.71-3.09,9.08-4.64,13.41
		c-14.28,39.75-28.61,79.48-42.78,119.28c-1.15,3.24-2.65,4.23-6.04,4.18c-11.89-0.16-11.9-0.01-15.96-11.3
		c-14.44-40.22-28.88-80.44-43.31-120.67C264.15,831.52,263.66,829.96,262.99,827.95z"/>
	<path d="M162.65,964.66c-1.45-7.64-0.26-13.51,5.74-19.32c16.15-15.62,31.61-31.97,47.01-48.34c7.97-8.47,13.95-18.15,14.92-30.31
		c1.37-17.18-8.97-27.98-26.26-27.24c-8.91,0.38-16.95,3.15-24.33,8.03c-2.34,1.55-4.67,3.11-7.31,4.87
		c-2.79-3.53-5.45-6.89-8.06-10.19c14.94-15.72,44.87-21.07,63.75-11.64c15.43,7.7,22.09,24.54,17.3,43.58
		c-2.63,10.44-8.05,19.45-15.29,27.13c-14.28,15.15-28.98,29.89-43.61,44.7c-1.22,1.23-3.22,1.69-4.86,2.51
		c0.57,0.76,1.14,1.52,1.71,2.29c22.87,0,45.73,0,68.84,0c0,5.01,0,9.43,0,13.94C222.16,964.66,192.41,964.66,162.65,964.66z"/>
	<path d="M133.49,964.66c-5.34,0-10.27,0-15.39,0c0-45.6,0-90.92,0-136.48c5.2,0,10.12,0,15.39,0
		C133.49,873.63,133.49,918.95,133.49,964.66z"/>
	<path d="M410.49,310.07c-6.46,6.51-12.18,12.3-17.93,18.06c-12.01,12.03-23.96,24.12-36.08,36.04
		c-15.03,14.78-37.17,16.87-55.34,7.06c-24.49-13.22-29.32-50.88-8.65-71.2c34.82-34.23,69.08-69.03,103.74-103.42
		c3.74-3.71,5.21-6.74,3.96-12.34c-3.61-16.17,0.29-30.98,11.99-42.87c26.06-26.49,51.93-53.2,78.91-78.75
		c36.72-34.77,96.82-33.15,133.2,2.75c25.26,24.93,50.37,50.03,75.29,75.32c16.89,17.14,26.2,37.93,27.62,62.03
		c1.71,29.21-7.77,54.41-28.31,75.14c-35.54,35.87-71.35,71.48-107.08,107.15c-21.89,21.86-54.27,16.9-68.65-10.43
		c-0.23-0.43-0.51-0.84-1.03-1.68c-13.78,5.85-27.68,6.42-41.25-0.67c-13.66-7.14-21.21-18.81-24.04-34.15
		c-9.65,0.4-18.8-1.46-27.22-6.33C421.13,326.88,415.18,319.66,410.49,310.07z M628.6,308.69c17.12-17.1,34.32-34.05,51.26-51.26
		c26.13-26.55,26.4-69.97,0.3-96.62c-24.95-25.48-50.19-50.68-75.64-75.65c-26.22-25.73-68.53-26.64-95.1-1.4
		c-25.37,24.09-49.81,49.15-74.51,73.94c-11.24,11.28-10.95,22.58,0.37,33.9c34.4,34.41,68.81,68.82,103.23,103.22
		c1.3,1.3,2.55,2.66,3.97,3.8c5.48,4.41,13.17,4.03,18.24-0.82c4.89-4.69,5.69-12.19,1.73-17.78c-1.24-1.75-2.82-3.28-4.35-4.81
		c-21.79-21.81-43.61-43.59-65.38-65.41c-5.56-5.57-6.46-12.24-2.65-18.1c3.78-5.82,10.62-7.97,17.57-5.22
		c29.08,11.5,58.09,11.43,87.17-0.03c7.86-3.1,15.67,0.25,18.64,7.54c2.97,7.32-0.34,15.35-8.28,18.27
		c-8.1,2.98-16.34,5.91-24.78,7.51c-11.01,2.08-22.28,2.82-33.63,4.16c0.92,1,1.95,2.22,3.07,3.35c8.24,8.26,16.27,16.74,24.8,24.69
		c9.8,9.13,17.45,19.26,18.3,33.05C609.94,288.25,617.79,292.3,628.6,308.69z M417.55,214.64c-13.08,13.11-26.11,26.19-39.16,39.25
		c-21.64,21.66-43.43,43.18-64.81,65.09c-3.12,3.19-5.42,8.07-6.16,12.49c-1.16,6.97,3.46,13.69,9.79,16.41
		c7.58,3.26,14.4,1.72,20.14-4.01c34.64-34.57,69.22-69.19,103.81-103.8c0.42-0.42,0.63-1.06,0.71-1.2
		C433.75,230.78,425.88,222.94,417.55,214.64z M562.42,370.92c1.8-0.88,5.45-1.75,7.8-3.98c10.36-9.86,20.47-20.01,30.42-30.29
		c5.22-5.38,4.91-13.75-0.13-18.98c-5.07-5.26-13.12-5.66-19-0.93c-0.52,0.42-1,0.88-1.47,1.35c-9.42,9.41-18.87,18.78-28.24,28.24
		c-4.49,4.53-6.16,9.89-3.55,15.97C550.58,367.71,555.01,370.31,562.42,370.92z M462.39,259.67c-7.62,7.29-15.95,14.49-23.31,22.57
		c-5.97,6.55-4.95,16.58,1.06,22.7c5.71,5.82,15.93,7.47,21.88,2.1c8.46-7.63,15.93-16.35,23.47-24.23
		C477.9,275.22,469.96,267.26,462.39,259.67z M531.4,325.9c-8-7.35-16.37-15.04-24.71-22.71c-6.09,5.99-12.38,11.68-18.08,17.93
		c-5.85,6.41-5.4,16.43,0.38,22.78c5.96,6.54,16.35,8.08,22.98,2.21C519.13,339.77,525.31,332.32,531.4,325.9z"/>
	<path d="M245.71,390.1c30.24-12.86,60.32,4.43,65.56,34.78c20.86-0.38,36.36,8.59,46.09,27.83c1.79-1.71,3.12-2.92,4.38-4.19
		c16.5-16.49,32.94-33.04,49.51-49.46c15.03-14.88,36.99-17.01,55.3-7.28c24.47,13,29.63,50.79,8.94,71.16
		c-34.31,33.78-68.08,68.12-102.33,101.97c-4.76,4.7-6.8,8.58-5.26,15.69c3.29,15.24-0.79,29.37-11.74,40.55
		c-25.76,26.31-51.49,52.68-78.09,78.13c-37.4,35.79-97.29,34.91-134.28-1.42c-25.44-24.98-50.62-50.24-75.64-75.64
		c-16.48-16.73-25.73-37.01-27.39-60.54c-2.12-29.97,7.55-55.7,28.67-76.95c35.47-35.69,71.11-71.22,106.73-106.76
		c21.68-21.64,53.94-16.78,68.39,10.22C244.87,388.76,245.23,389.3,245.71,390.1z M139.61,454.26c-1.23,1.12-2.24,1.98-3.17,2.91
		c-15.79,15.78-31.63,31.51-47.34,47.37c-27.89,28.14-27.78,71.33,0.26,99.49c24.1,24.2,48.26,48.33,72.44,72.45
		c27.88,27.8,70.62,28.47,98.79,1.06c24.36-23.69,48.26-47.86,72.22-71.95c11.42-11.49,11.13-22.69-0.42-34.25
		c-34.51-34.52-69.03-69.03-103.55-103.54c-1.06-1.06-2.08-2.17-3.23-3.13c-7.43-6.18-18.41-3.28-21.77,5.8
		c-2.39,6.47-0.01,11.59,4.61,16.19c22.3,22.22,44.58,44.46,66.79,66.78c8.4,8.44,5.32,21.2-5.92,23.85
		c-3.12,0.73-6.99-0.01-10.09-1.18c-28.5-10.77-56.9-10.83-85.3,0.23c-8.51,3.31-16.47,0.39-19.53-7.26
		c-3.1-7.74,0.45-15.57,9.19-18.67c8.13-2.88,16.41-5.7,24.85-7.26c10.7-1.98,21.64-2.66,32.72-3.93c-0.97-1.05-2-2.26-3.12-3.38
		c-8.59-8.61-16.98-17.43-25.85-25.74c-9.43-8.84-16.33-18.84-17.29-32.34C158.99,476.07,147.17,468.44,139.61,454.26z
		 M350.19,548.23c0.73-0.66,1.74-1.5,2.67-2.42c13.19-13.17,26.37-26.36,39.55-39.54c20.71-20.71,41.39-41.45,62.15-62.1
		c4-3.97,6.49-8.46,6.05-14.16c-0.54-7.06-3.95-12.34-10.6-15.03c-7.46-3.02-14.12-1.14-19.67,4.4
		c-34.4,34.33-68.75,68.71-103.11,103.09c-0.57,0.57-1,1.27-1.28,1.63C334.02,532.12,341.9,539.97,350.19,548.23z M178.49,449.85
		c1.55-0.61,4.16-1.59,6.73-2.66c0.59-0.25,1.11-0.74,1.58-1.21c10.02-9.98,20.17-19.84,29.98-30.03c5.62-5.84,5.35-13.9,0.05-19.33
		c-5.02-5.14-13.27-6.05-18.52-1.07c-10.86,10.3-21.42,20.94-31.75,31.77c-3.86,4.05-4.07,9.37-1.66,14.49
		C167.32,446.98,171.68,449.33,178.49,449.85z M282.44,480.33c7.49,7.52,15.44,15.5,23.17,23.27c7.58-7.36,15.84-14.63,23.17-22.74
		c5.86-6.48,4.99-16.16-0.75-22.35c-5.71-6.15-15.97-7.97-22.22-2.4C297.31,463.71,289.88,472.52,282.44,480.33z M236.13,436.83
		c8.44,7.79,16.78,15.49,25.11,23.17c6.11-6.06,12.25-11.69,17.85-17.82c6.19-6.77,5.63-17.11-0.72-23.52
		c-6.35-6.41-16.81-7.12-23.51-0.93C248.16,423.93,242.04,430.75,236.13,436.83z"/>
</g>
</svg>
