<?xml version="1.0" encoding="utf-8"?>
<!-- Generator: Adobe Illustrator 23.0.3, SVG Export Plug-In . SVG Version: 6.00 Build 0)  -->
<svg version="1.1" id="Calque_1" xmlns="http://www.w3.org/2000/svg" xmlns:xlink="http://www.w3.org/1999/xlink" x="0px" y="0px"
	 viewBox="0 0 754.1 798.7" style="enable-background:new 0 0 754.1 798.7;" xml:space="preserve">
<g>
	<path d="M479,786.4c2.1-7.7,4.4-14.2,5.7-21c1.3-6.8,1.9-13.7,2.2-20.6c0.3-10.7,0.1-21.5,0.1-32.9c-6.7,2.4-13.1,3.8-18.6,6.9
		c-8.3,4.6-17,6.6-26.2,7.2c-3,0.2-6,0.9-8.9,0.5c-3.8-0.6-8.2-1.1-11.1-3.2c-10.9-7.9-21.4-16.4-31.9-24.8
		c-3.7-2.9-5.9-4.6-10.9-0.2c-14,12.5-29.2,23.7-43.7,35.5c-4.9,4-10.1,5.7-16.5,5.2c-12.1-0.8-23.7-2-34.5-8.5
		c-4.8-2.9-10.8-3.8-16.4-5.7c0,16.2-0.6,32.1,0.3,47.8c0.4,7.6,3.8,15,5.8,22.5c0.3,1.1,0.5,2.2,0.8,3.5c-74.9,0-149.5,0-224.5,0
		c-1.5-8.6-3.3-17-4.5-25.5c-1.5-10.5-2.6-21-3.5-31.5c-1-10.9-0.2-22.1-2.5-32.7c-2.2-9.9-2.1-19.6-2.3-29.5
		c-0.1-3.2-1.2-6.4-2.1-9.6c-2-7.5,0.1-14.8,1.6-22c2.7-13.4,4.2-27.3,12-39.2c3.8-5.8,7.5-11.9,12.2-16.8c3.8-4,5.2-8.3,5.7-13.3
		c2.3-25.2,4.9-50.3,6.7-75.5c0.5-7.2-1.1-14.6-1.6-21.8c-0.2-2.1-0.2-4.3,0.2-6.4c1.5-6.6-0.4-12.4-2.6-18.6
		c-1.3-3.8,0.3-8.8,0.9-13.2c1.9-12.4,5.3-24,14.9-33.2c6.3-6,9.7-7.5,17.3-13.1c9.6-7,20.5-3.9,30.5-6.6c1.4-0.4,3.1,0.8,4.7,1.1
		c1.7,0.3,4,1,5.2,0.2c5.5-3.7,9.8-0.7,13.3,2.6c5.8,5.6,10.8,12.1,16.2,18c1.2,1.3,3,2.1,4.3,3.3c11.1,11.3,14.1,25.5,11.6,40.1
		c-1.2,6.8,0.5,11.6,2.5,17.2c0.8,2.2,1.6,4.4,1.8,6.7c1.2,15.6-0.1,31.2-5.3,45.8c-3,8.5-5.1,18.3-13.9,23.8c-2.7,1.7-2,3,0.7,5.1
		c7.8,5.8,15,12.3,22.5,18.5c1.6,1.4,2.9,3.5,4.7,4.4c5.3,2.5,4.6,6.2,3.3,10.7c-0.4,1.5,0.3,3.9,1.4,5.3c1.3,1.8,3.3,3.2,5.3,4.5
		c7.1,4.6,12.3,10.9,17.1,17.8c5.4,7.7,11.1,15.1,16.7,22.5c1,1.3,2.2,2.5,3.5,3.5c9.5,6.9,19.8,12.9,28.5,20.7
		c6.1,5.5,14,7.3,20.2,12.4c3.7,3,8.6,6.5,14,2.7c3-2.1,5.8-4.6,8.3-7.4c5.4-5.8,10.5-11.9,16.1-18.3c-3.1-2.9-6.3-5.9-9.6-8.8
		c-5.2-4.5-5.8-6.7-2.8-13c1.9-4,4.1-8,6.5-11.8c2.4-3.8,5.2-7.3,8.7-12c-4.7-4.5-9.5-9.2-14.4-13.7c-6.8-6.3-13.8-12.5-20.6-18.7
		c-0.8-0.7-1.7-2-1.7-3c0-6.2,0.3-12.4,0.3-18.6c0-1.5-0.5-3.1-1.3-4.5c-0.9-1.5-2.6-2.6-3.4-4.2c-2.5-5.2,1.1-10.1,6.8-9.8
		c1.1,0.1,2.2,0,4.6,0c-2.8-3.1-4.7-5.4-6.8-7.5c-7.8-8-15.9-15.8-23.5-24c-1.6-1.8-2.5-4.8-2.7-7.3c-0.2-3,4.8-4.5,8-2.2
		c4.7,3.4,9.5,6.8,13.5,11c6.5,6.7,11.8,14.6,18.5,21c8.2,7.8,16.9,15.1,28.4,17.9c1.7,0.4,3.6,2,4.4,3.6c4.2,8.6,7.4,17.9,12.4,26
		c6,9.8,13.4,18.7,21,29.1c4.3-6.7,8.1-11.8,11-17.3c4.4-8.4,7.9-17.1,12.1-25.6c0.7-1.4,2.6-2.6,4.3-3.1
		c8.4-2.4,15.9-6.3,21.9-12.8c8.2-8.8,16.5-17.6,25-26.2c3.5-3.5,7.6-6.4,11.5-9.5c2.8-2.2,6.3-4.7,9.1-0.8c2.4,3.3,0,6.9-2.4,9.5
		c-9.1,9.5-18.4,18.9-27.7,28.3c-0.4,0.4-0.6,1.1-1.2,2.1c4.1,1.2,9.7-1.2,11.1,5c1.2,5.5-2.5,8.2-4.7,9.9c0,8.1,0.6,15-0.3,21.7
		c-0.4,3.2-3.3,6.6-5.9,8.9c-6.3,5.6-13.4,10.4-19.8,16c-3.9,3.5-7,7.8-10,11.3c5,8.3,9.8,15.7,14,23.6c1.4,2.7,0.9,6.3,1.3,9.5
		c0.1,0.8-0.4,1.8,0,2.2c4.6,5.2,8.4,12.1,16.3,12.2c3.2,0,6.5-3.1,9.7-4.9c1.3-0.7,2.4-1.8,3.7-2.4c4.8-2.2,9.4-4.3,13.7-8
		c8.8-7.7,19.4-13.3,28.5-20.7c5.5-4.5,9.7-10.6,14.2-16.2c8-10,13.8-22,25.3-29c1.8-1.1,3.2-2.9,5-4.1c2.4-1.6,2.6-3.2,1.4-5.9
		c-1.8-4-1.4-7.1,3-10.4c8.8-6.4,16.7-13.9,24.9-21.1c1.8-1.5,4.6-3.8,4.4-5.2c-0.3-2-3.1-3.6-5-5.2c-3.3-2.6-4-6.6-5.7-10
		c-8.7-17.2-10.3-35.5-9.6-54.2c0.2-5.6,3.4-11,4.7-16.6c0.5-2.1,0.1-4.6-0.3-6.8c-1.6-8.3-0.9-16.5,1.4-24.6
		c2.3-8.2,6.5-15,13.5-20.2c3.2-2.4,4.9-6.8,7.9-9.7c4.8-4.6,10.1-8.8,15.3-13c0.8-0.7,3-0.8,3.8-0.2c3.8,2.9,7.2,1.5,11.2,0.4
		c3.1-0.8,6.8,0.3,10.3,0.6c4.9,0.4,9.8,0.8,14.7,1.5c1.2,0.2,2.4,1,3.5,1.7c7,4.1,14,8.2,20,11.8c0.6,1.9,0.8,3.3,1.5,4.3
		c2.8,3.9,6,7.5,8.5,11.6c4.6,7.3,5.1,15.8,6.4,24.1c1,6.8,0.7,13.3-2.4,19.4c-0.2,0.4-0.1,1,0,1.5c2,11.3-1.4,22.4-0.9,33.6
		c0.4,7.9,2.2,15.8,2.8,23.7c1.5,17.6,2.9,35.2,4,52.8c0.4,6.2,2.1,11.2,6.7,15.9c11.6,12,18.3,26.7,20.7,43.3
		c1,6.7,3.1,13.3,3.8,20c0.6,6,0.3,12.1,0,18.1c-0.2,4.9-1,9.7-1.6,14.5c-0.7,6-1.6,12.1-2.3,18.1c-0.1,1.1-0.4,2.3-0.4,3.4
		c-0.9,15.9-1.3,31.9-3,47.7c-1.4,13-4.4,25.8-6.9,38.7c-0.2,1-1.8,2-2.9,2.4c-1.2,0.4-2.6,0.1-4,0.1c-70.5,0-141,0-211.5,0
		C483.8,786.4,481.9,786.4,479,786.4z"/>
	<path d="M533.2,117.8c-3.5-6.5-3.6-13.9-9.8-18.7c-2.4-1.9-3.9-5.4-4.9-8.5c-1.7-5-2.8-10.3-4-15.5c-0.3-1.2-0.4-3.3,0.2-3.8
		c4.3-3.4,1.5-6.8,0.1-10c-4.9-11.5-4.4-23.5-2.2-35.3c1.8-9.3,7.7-17.8,15.2-22.5c12.7-7.9,28.8-1.7,37.9,8.6
		c8.7,9.9,11.1,22.2,11.3,34.9c0.1,4.1,0.7,7,6.4,5.7c1,11.7,3.7,22.6-2.4,34c-2.7,5-3.5,13.2,0.8,19.4c2.9,4.3,6,8.5,9.4,12.4
		c1.4,1.6,4,3.4,6,3.3c12.4-0.9,24.8-2.4,37.2-3.3c1.9-0.1,4.3,1,5.7,2.3c1.7,1.7,2.5,4.3,3.7,6.4c2.9,4.8,5.4,10.1,9,14.3
		c2.8,3.2,6.9,5.5,10.9,7.4c4.8,2.2,9.7,4.1,15.3,4.8c5.3,0.7,10.2,5,15.3,7.7c3.7,2,7.4,4.1,11.1,6.1c0.5-0.3,1-0.7,1.4-1
		c-0.8-3.4-1.7-6.8-2.5-10.2c-1.2-5.2-2.1-10.4-3.4-15.5c-1.7-6.7-3.7-13.3-5.3-20.1c-0.7-3-1.1-6.2-1-9.2c0.3-6.9-8-20.7-14-24.2
		c-3.1-1.8-5.5-4.7-8.5-5.8c-3.2-0.6-6.6-0.8-9.5-2.1c-3.1-1.3-8-0.6-8.6-5.8c-0.2-1.9-0.2-3.8-0.4-5.7c-0.1-1.2-0.3-2.4-0.4-3.6
		c-1.2,0.2-2.4,0.2-3.5,0.6c-4.3,1.5-8.5,3.5-12.9,4.7c-1.5,0.4-3.4-1.1-5.2-1.7c0.7-1.3,1.5-2.5,2.1-3.8
		c3.1-6.6,11.1-5.5,15.7-10.1c3.2-3.2,8.2-4.5,12.3-6.8c3.2-1.8,6-1.6,8.6,0.8c9,8.3,18.1,16.4,26.7,25c3,3,5.3,7.2,7,11.2
		c4.2,9.8,4,9.9,13.8,9.7c0.9,2,2,3.8,2.4,5.8c0.4,2,1.5,4.7-1.7,5.6c-0.7,0.2-2.2-1.3-2.6-2.3c-0.6-1.5-0.7-3.3-0.9-4.7
		c-6.9,0.9-13.5,1.7-20.6,2.6c6.4,8.3,22.1,11.6,28.6,6.2c1.8-1.5,3-4,5.6-3.1c1.6,0.6,3.8,2.1,4.1,3.6c3,16.2,5.2,32.6,8.5,48.7
		c2.1,10.1,5.7,20,8.8,29.9c0.3,0.8,1.9,1.2,3.7,2.4c0,5.1,0.2,11.6-0.1,18c-0.2,5.3-7.1,10.8-12.8,10.9c-0.3,0-0.7,0.1-1,0.2
		c-22.1,7.5-44.1,3.4-66.1-0.7c-5.1-0.9-10.1-2.1-15.2-3c-6.2-1.1-10.3,1.5-11.9,7.7c-4.5,17.7-6.6,35.6-6.6,53.9
		c0,30,0,59.9,0,90.8c-47.1-4.8-93.7-9.5-140.6-14.3c-0.2-1.7-0.4-2.9-0.4-4.2c0.3-21,0.9-42,0.9-62.9c0.1-22.8-3.1-45.1-9.6-67
		c-1.4-4.6-2.7-9.2-3.9-13.3c-14.3,0-28.2,0.3-42.1-0.1c-15.9-0.5-31.5-3.5-46.3-9c-6-2.3-11.2-7-16.2-11.3c-3.7-3.2-4-8-2.5-12.6
		c2.7-8.7,6.5-17.1,8.3-26c3.3-16.3,5.6-32.8,8.2-49.2c0.4-2.4,0.7-4.9,1.2-7.9c3.4,0.4,6.6,0.8,10,1.2c0.7-1.5,1.4-2.9,2.2-4.7
		c3.1,5.2,0.1,13.5,8.9,14.9c5.6,0.9,10.4,8.4,18,1c-0.4,3.6-0.3,6.3-1,8.8c-2.4,8.3-5.2,16.5-7.4,24.8c-1.1,4.2-1.2,8.8-2,14.6
		c3.7-0.7,7.2-1.5,10.7-2.1c7.2-1.3,14.5-4.1,21.5-3.4c10,0.9,16.2-4.6,20.5-11.6c0.6-0.9,1.2-2.6,1.8-2.6c5.3,0,6.2-4.1,7.6-7.7
		c1.5-4,3.6-6.6,8.6-5.1c2,0.6,4.3-0.1,6.5,0c6.8,0.3,13.6,0.7,20.4,1C526.4,117.9,529.4,117.8,533.2,117.8z"/>
	<path d="M1.5,188.3c0.9-0.6,2.2-1.1,2.5-1.9c3.1-10.3,6.7-20.4,8.9-30.9c3.3-15.6,5.4-31.5,8.3-47.2c0.3-1.5,1.7-3.6,2.8-3.8
		c1.9-0.3,4.6,0.1,5.8,1.3c3.5,3.3,14.6,5.9,18.6,3.6c3.6-2,7.2-4.1,10.8-6.2c-0.1-0.6-0.1-1.3-0.2-1.9c-6.6-0.8-13.3-1.7-20.4-2.6
		c-0.2,1.9-0.5,4.2-0.8,7.1c-1.1-0.2-3.1,0-3.6-0.7c-0.8-1.2-1-3.1-0.7-4.5c0.5-2,1.6-3.9,2.5-6.1c9.5,0,9.7,0.1,13.2-8.9
		c3.1-8.2,9-14,15.3-19.7c6.1-5.5,12.2-11.1,18.3-16.8c3.4-3.2,6.7-3.3,10.7-0.7c5.9,3.8,11.9,7.7,18.2,10.5
		c3.4,1.5,7.2,1.9,8.9,5.8c0.5,1.2,1.2,2.3,1.8,3.5c-1.4,0.7-3,2.2-4.2,1.9c-4.7-1.3-9.3-3.2-13.9-4.7c-1.1-0.4-2.4-0.5-3.6-0.7
		c-0.2,1.2-0.7,2.5-0.5,3.6c1.1,5.5-0.8,8.9-6,10.6c-0.9,0.3-2,0.6-2.8,1.1c-3.3,2.1-6.5,3.4-9.1,0.9c-4.7,3.1-9.6,5.2-12.9,8.8
		c-3.5,3.9-6.2,9-7.9,14.1c-2,6-2,12.6-3.6,18.8c-2.3,9-5.4,17.9-7.6,26.9c-1.4,5.6-2,11.5-3.3,19.1c4.8-2.5,8.5-4.3,12-6.3
		c3.7-2.2,7.3-4.7,11-6.8c1.4-0.8,3.1-1.6,4.6-1.6c10.3,0.3,18.1-5.5,25.7-11c3.6-2.6,5.8-7.4,8.3-11.4c1.7-2.8,2.7-6,4.3-8.9
		c1.7-3.2,3.8-4.1,8-3.4c12,1.8,24.1,2.4,36.2,3.3c4.3,0.3,5.8-3.6,8.3-6.1c0.8-0.8,1.2-1.9,2-2.7c7.4-6.9,7.5-15.8,6.5-24.8
		c-0.2-2.2-2.1-4.3-3.1-6.5c-3.2-6.7-1.8-13.8-1.3-20.7c0.1-2.1,0.4-4.3,0.9-6.3c0.2-0.8,1.5-2.1,2.2-2c4.2,0.6,4.1-2.2,4.3-5
		c0.5-9.7,1.5-19.3,6.1-28.1c6.8-13.1,18.6-19.7,32.5-19.7c5.8,0,11.1,2.8,15.3,7.6c14.8,17,14.7,35.9,7.5,55.7
		c-0.9,2.5-1.3,4.1,0.4,6.9c1.6,2.5,1.3,6.9,0.4,10.1c-2,7.2-4.1,14.6-10.4,19.8c-1.4,1.2-2,3.3-2.8,5.1c-1.7,3.9-3.3,7.9-5.2,12.5
		c3.5,0,6.3,0.1,9,0c10.1-0.5,20.2-1.4,30.2-1.4c1.9,0,4.5,2.7,5.6,4.7c1.9,3.7,2.4,8.4,8.1,8.4c0.5,0,1,0.8,1.4,1.3
		c2.7,3.5,4.8,7.8,8.2,10.5c2.4,1.9,6.5,2.7,9.7,2.4c9.1-0.9,17.4,1.3,25.8,4.3c2.8,1,6,0.7,10.9,1.2c-4.1-14.2-7.8-26.8-11.3-39.5
		c-0.7-2.4-0.6-5-1-8.6c7.5,7.3,12.3,0.1,17.9-0.9c8.5-1.5,6.2-9.2,8.7-14.9c1,1.8,1.7,3,2.6,4.7c3-0.4,6.3-0.9,9.9-1.4
		c1.5,10.4,2.9,20.4,4.2,30.5c2,15,4.8,29.8,11.1,43.8c1.6,3.4,2.7,7.4,2.7,11.1c0,3.6-0.7,8.4-3,10.4c-5.7,4.9-12,9.9-19,12.3
		c-22.7,7.9-46.4,9.6-70.4,7.9c-4.8-0.3-9.6,0-15.5,0c-3.1,12.8-6.8,26-9.4,39.5c-3.6,18.5-4.2,37.2-3,56.2
		c1,16.1,0.1,32.3,0.3,48.5c0,3.3-1.6,3.8-4.2,4.1c-23.9,2.4-47.7,4.8-71.6,7.2c-21.4,2.2-42.7,4.3-64.9,6.6c0-2.1,0-3.8,0-5.6
		c0-25,0.1-50,0-75c-0.1-21.5-1.2-42.9-6.8-63.8c-1.8-6.6-5.6-9-12.2-7.9c-15.9,2.6-31.8,5.6-47.8,7.4c-10.9,1.2-22,0.8-32.5-3.3
		c-2-0.8-4.5-0.6-6.4-1.5c-7.4-3.6-8.8-10-8.1-17.5c0.4-3.8,0.1-7.6,0.1-11.5C0.7,187.9,1.1,188.1,1.5,188.3z"/>
	<path d="M488.6,74.9c0.4-4.4-3.1-5.3-7-5.3c-1,0-2.5,0.6-2.8,1.3c-3.6,7.2-10,7.9-16.9,8.2c-4.9,0.2-9.7,1.2-14.5,2.3
		c-1.1,0.2-2,2-2.6,3.3c-2.2,4.2-4.3,8.5-6.4,12.6c-5.1-2-9.9-3.9-14.9-5.9c-0.2,0.2-0.6,0.9-1.1,1.6c-0.3-0.1-0.5-0.2-0.6-0.3
		c-3.3-3.3-6.7-5.5,0.2-9.7c4.5-2.7,7-9.1,9.8-14.1c3.8-6.9,10.3-10.6,16.2-15.1c5.1-3.9,10.6-7.5,15.8-11.4
		c2.5-1.9,4.5-2.2,6.9,0.3c5.4,5.5,11.2,10.5,16.5,16.1c3.9,4.1,7.4,8.7,10.7,13.3c0.8,1.2,0.6,3.1,0.8,4.8c-1.8,0-3.6,0.3-5.3,0
		C491.7,76.7,490.4,75.8,488.6,74.9z"/>
	<path d="M336.7,87.9c-0.9,1.1-2.8,3.1-4.8,5.4c-0.4-0.9-0.8-1.6-1-1.9c-4.9,2-9.6,3.8-14.9,5.9c-2-3.9-4-8.4-6.6-12.6
		c-1-1.7-3.1-3.3-5-3.7c-7.3-1.6-14.8-2.4-22.1-4c-2.3-0.5-5.1-2.4-5.9-4.4c-1.6-3.9-4.2-3.5-6.7-2.4c-1.9,0.8-3.2,2.8-4,5
		c-1.5,0.6-3,1.6-4.6,1.9c-1.7,0.3-3.6-0.1-5.4-0.1c0.2-1.5-0.2-3.5,0.6-4.4c7.6-8.6,15.4-17,23.3-25.4c2.2-2.3,4.7-5.7,7.2-5.8
		c2.6-0.1,5.3,3.2,7.9,5c6.9,4.7,14.4,8.7,20.5,14.2c5,4.6,8.4,11,12.6,16.5C330.4,80.5,333.3,83.8,336.7,87.9z"/>
</g>
</svg>
