<?xml version="1.0" encoding="utf-8"?>
<!-- Generator: Adobe Illustrator 23.0.3, SVG Export Plug-In . SVG Version: 6.00 Build 0)  -->
<svg version="1.1" id="Calque_1" xmlns="http://www.w3.org/2000/svg" xmlns:xlink="http://www.w3.org/1999/xlink" x="0px" y="0px"
	 viewBox="0 0 747.3 520.3" style="enable-background:new 0 0 747.3 520.3;" xml:space="preserve">
<g>
	<path d="M695.4,126.8c0.7,2.2,0.8,3.5,1.4,4.4c2.9,4,6.9,7.6,8.6,12c2.9,7.6,4.3,15.7,6.3,23.6c0.3,1.3-0.2,2.8,0.3,3.9
		c2,4.6-1,8.6-1.4,13c-0.2,2.7-1.2,5.4-1.3,8.1c-0.2,4.6,0.4,9.3-0.2,13.9c-1.4,10.9,0,21.7,1.1,32.5c1.6,15.7,2.6,31.5,3.8,47.2
		c0.4,5.1,0.8,10.3,1.3,15.4c0.5,4.7,2.2,8.6,5.8,12.2c12,12.4,19,27.3,21.6,44.5c1.1,7.2,3.4,14.2,4.3,21.5
		c0.6,5.3-0.2,10.8-0.6,16.2c-0.4,5-1,10-1.6,15c-0.7,5.9-1.5,11.7-2.3,17.6c-0.2,1.3-0.4,2.6-0.5,3.9c-0.9,15.6-1.2,31.2-2.9,46.7
		c-1.5,13.2-4.5,26.1-7,39.2c-0.2,1-1.7,2-2.9,2.5c-1,0.4-2.3,0.1-3.5,0.1c-70.8,0-141.7,0-212.5,0c-1.8,0-3.6,0-6.3,0
		c1.7-6.1,3-11.7,4.8-17.1c3.2-9.3,3.6-18.8,3.2-28.5c-0.4-9.4-0.1-18.8-0.1-29c-6.6,2.4-13.1,3.7-18.5,6.8
		c-8.6,4.8-17.6,6.7-27.2,7.3c-2.3,0.1-4.7,0.2-7,0.5c-4.9,0.6-9.2-0.5-13.1-3.6c-11.1-8.8-22.6-17.1-33.2-26.4
		c-4-3.5-8.1-6-12.9-7.7c-5.8-2-9.4-6.1-12.2-11.7c-4.6-9.4-10.8-17.7-20.3-23.2c-6.1-3.5-11.4-8.4-17.1-12.5
		c-3.7-2.6-4.2-6.1-2.5-9.7c2.7-5.7,5.8-11.2,9-16.6c1.8-3,4.1-5.6,6-8.1c-3.8-9.9-12.9-14.2-20.1-20.4c-4.9-4.2-9.4-8.9-14-13.4
		c-0.8-0.8-1.7-2-1.7-3c0-6.2,0.3-12.4,0.3-18.6c0-1.5-0.6-3.1-1.4-4.4c-0.7-1.3-2.6-2.1-2.8-3.3c-0.4-2.6-0.9-5.7,0.2-7.9
		c0.8-1.5,4-1.9,6.2-2.6c1-0.3,2.2-0.1,4.8-0.1c-4.5-4.8-8.2-8.6-11.8-12.4c-5.6-5.9-11.4-11.5-16.8-17.6c-2-2.2-3.3-5.1-4.4-7.9
		c-0.3-0.8,0.8-3,1.5-3.1c1.9-0.5,4.6-1,5.9,0c5.1,3.7,10,7.6,14.5,12c5,4.8,9.4,10.1,14.2,15.1c3.7,3.9,7,8.2,11.3,11.2
		c6.3,4.4,13.4,7.6,20,11.5c2.1,1.2,4.6,2.7,5.6,4.7c4.3,8.4,7.4,17.5,12.3,25.5c6.1,10.2,12.8,20.2,22.7,27.6
		c3.7,2.8,6.3,7.2,9.2,11c5.8,7.5,11.5,15,17.3,22.5c0.4,0.5,1,0.9,1.3,1.5c3.5,8.2,8.3,14.5,17.6,17.4c4,1.2,6.6,6.6,10,10
		c1,1,2.3,1.5,3.5,2.2c6,3.8,9.9-1.1,14.4-3.5c0.9-0.4,1.4-1.6,2.2-1.9c6.4-2.1,11.8-5.8,17.1-10c9.2-7.3,19.6-13.2,28.5-20.8
		c5.6-4.8,9.9-11.4,14.2-17.5c7.9-11.3,16.2-22.2,28-29.8c2.6-1.7,3.2-3.5,1.8-6.6c-1.7-3.8-1.3-6.8,3-9.9
		c8.8-6.4,16.8-13.9,24.9-21.1c5.7-5.1,5.7-5.4-0.4-10.4c-3.3-2.7-4-6.5-5.8-10c-8.6-16.8-10.3-34.9-9.8-53.2
		c0.2-5.7,3.3-11.4,4.6-17.1c0.5-2.4-0.1-5.1-0.2-7.7c0-6.1-0.8-12.4,0.2-18.3c1.8-10.2,5.4-19.7,14.7-26.1c3.3-2.3,5-6.8,7.9-9.7
		c4.8-4.7,10.1-8.9,15.3-13.1c0.7-0.6,2.1-0.8,2.9-0.5c10,3.3,20.3-0.4,30.3,1.8c4.3,1,8.7,1.2,12.8,4.2
		C683.6,121,690.4,124,695.4,126.8z"/>
	<path d="M114.1,366.2c0-2.4,0-4.2,0-6c0-24.8,0.1-49.7,0-74.5c-0.1-21.5-1.2-42.9-6.8-63.8c-1.8-6.6-5.6-9.1-12.2-8
		c-15.9,2.6-31.8,5.6-47.8,7.4c-10.9,1.2-22,0.8-32.5-3.3c-2-0.8-4.5-0.5-6.5-1.5c-7.4-3.6-8.9-10-8.1-17.5
		c0.4-3.8,0.1-7.6,0.1-10.1c1.9-1.6,3.3-2.2,3.8-3.3c6.2-14.4,8.9-29.7,11.1-45.2c1.6-11,3.9-22,6-32.9c0.3-1.3,1.6-3.3,2.7-3.4
		c1.9-0.2,4.6,0,5.9,1.2c4,3.9,14.7,5.8,19.4,3c3.3-2,6.7-3.7,10.1-5.5c-0.1-0.7-0.1-1.4-0.2-2c-6.6-0.8-13.2-1.7-20.4-2.6
		c-0.2,1.9-0.5,4.1-0.9,7.1c-1.3-0.3-3.4-0.1-3.9-1c-0.7-1.2-0.5-3.2-0.2-4.7c0.5-1.9,1.5-3.6,2.3-5.6c9.9-0.2,10.1-0.1,13.9-10.2
		c2.9-7.8,8.8-13,14.6-18.4c6.1-5.6,12.2-11.1,18.3-16.8c3.4-3.2,6.7-3.4,10.7-0.8c5.9,3.8,11.9,7.6,18.2,10.5
		c3.4,1.6,7.2,1.9,9,5.8c0.5,1.2,1.2,2.3,1.9,3.5c-1.6,0.7-3.3,2.2-4.6,1.9c-4.6-1.2-9-3.1-13.4-4.7c-1.1-0.4-2.4-0.5-3.6-0.8
		c-0.2,1.2-0.8,2.5-0.6,3.6c1,5.6-0.8,9-5.9,10.6c-1.1,0.4-2.1,1-3.2,1.3c-3.1,0.7-6.2,1.2-10.5,1.9c-2.9,1.9-7.8,4-11.1,7.6
		c-3.5,3.9-6.3,9-7.9,14c-2.1,6.8-2.4,14.2-4.1,21.2c-2,8.2-5,16.2-7.1,24.4c-1.4,5.7-2,11.5-3.3,19.1c4.7-2.5,8.4-4.2,12-6.3
		c3.7-2.2,7.3-4.7,11-6.8c1.4-0.8,3.1-1.6,4.6-1.6c10.4,0.5,18.1-5.6,25.7-11c3.7-2.7,5.9-7.7,8.4-11.9c1.7-2.8,2.7-6,4.4-8.9
		c1.7-3,3.9-4.9,7.7-2.9c1.1,0.6,2.6,0.6,3.9,0.7c9.6,0.8,19.2,1.2,28.8,2.3c5.6,0.6,9.1-1.7,11.8-6c0.7-1.1,1.4-2.2,2.3-3
		c7-6.9,7.2-15.6,6.1-24.4c-0.3-2.2-2.1-4.3-3.1-6.5c-3.1-6.7-1.8-13.8-1.3-20.7c0.2-2.1,0.4-4.3,0.9-6.3c0.2-0.9,1.5-2.2,2.2-2.1
		c4.7,0.6,4.2-2.7,4.3-5.4c0.5-9.6,1.6-18.9,6.1-27.6C189.9,6.6,201.7,0,215.6,0c6,0,11.3,2.9,15.6,7.9c14.6,17,14.3,35.7,7.2,55.3
		c-0.9,2.5-1.4,4.1,0.3,6.9c1.6,2.5,1.3,6.9,0.5,10.1c-1.9,7.3-4.2,14.6-10.3,19.8c-1.4,1.2-2.1,3.3-2.8,5
		c-1.7,3.9-3.3,7.9-5.1,12.4c4.2,0,7.8,0.1,11.4,0c9.4-0.4,18.8-1.2,28.2-1.2c1.7,0,4.1,2.7,5.1,4.7c1.9,3.7,2.3,8.4,8.1,8.5
		c0.5,0,1,0.8,1.4,1.3c2.7,3.5,4.8,7.8,8.2,10.4c2.5,2,6.8,2.6,10.2,2.3c8.7-0.7,16.8,1.4,24.9,4.1c3,1,6.3,0.9,9.5,1.4
		c0.5-0.5,1-0.9,1.5-1.4c-3.6-12.5-7.2-25-10.6-37.5c-0.7-2.5-0.7-5.2-1.2-9.1c7.6,7.3,12.4,0.1,18-0.9c8.4-1.5,6.4-9.1,8.7-15
		c1,1.7,1.7,3,2.7,4.7c3-0.4,6.2-0.9,9.9-1.4c1.5,10.6,2.9,20.7,4.3,30.9c2.1,14.8,4.8,29.5,11,43.3c1.6,3.6,2.8,7.7,2.8,11.6
		c0,3.4-0.8,8-3,10c-5.7,4.8-12,9.9-19,12.3c-22.7,7.9-46.4,9.6-70.4,7.9c-4.8-0.3-9.6,0-15.6,0c-3.1,12.7-6.8,26-9.4,39.4
		c-3.6,18.5-4.2,37.2-3,56.2c1,16.1,0.1,32.3,0.3,48.5c0,3.2-1.5,3.9-4.2,4.2c-23.7,2.3-47.4,4.8-71.1,7.2
		C157.9,361.8,136.4,364,114.1,366.2z"/>
	<path d="M336.7,87.6c-0.9,1-2.7,3.1-4.8,5.5c-0.4-0.8-0.8-1.6-1-2c-4.8,1.9-9.6,3.8-14.9,5.9c-2-3.8-4-8.3-6.5-12.5
		c-1-1.7-3-3.4-4.9-3.8c-7.3-1.6-14.8-2.4-22.1-4c-2.3-0.5-5.1-2.4-6-4.4c-1.6-3.7-4.1-3.7-6.7-2.5c-1.9,0.8-3.3,2.7-4.2,4.8
		c-1.6,0.8-3.1,2-4.8,2.4c-1.6,0.3-3.6,0.2-4.9-0.5c-0.5-0.3-0.5-3.3,0.3-4.1c7.6-8.6,15.4-17,23.3-25.4c2.2-2.3,4.7-5.7,7.2-5.8
		c2.5-0.1,5.3,3.1,7.9,4.9c6.9,4.7,14.4,8.7,20.5,14.2c5.2,4.7,8.6,11.2,13,16.8C330.6,80.4,333.4,83.6,336.7,87.6z"/>
</g>
</svg>
